<?xml version="1.0" encoding="UTF-8" standalone="no"?>
<!-- Created with Inkscape (http://www.inkscape.org/) -->

<svg
   width="512"
   height="512"
   viewBox="0 0 512 512"
   version="1.1"
   id="svg5"
   xml:space="preserve"
   inkscape:version="1.2.2 (732a01da63, 2022-12-09)"
   sodipodi:docname="app_icon_svg.svg"
   xmlns:inkscape="http://www.inkscape.org/namespaces/inkscape"
   xmlns:sodipodi="http://sodipodi.sourceforge.net/DTD/sodipodi-0.dtd"
   xmlns="http://www.w3.org/2000/svg"
   xmlns:svg="http://www.w3.org/2000/svg"><sodipodi:namedview
     id="namedview7"
     pagecolor="#ffffff"
     bordercolor="#000000"
     borderopacity="0.25"
     inkscape:showpageshadow="2"
     inkscape:pageopacity="0.0"
     inkscape:pagecheckerboard="0"
     inkscape:deskcolor="#d1d1d1"
     inkscape:document-units="px"
     showgrid="false"
     inkscape:zoom="0.72506066"
     inkscape:cx="340.66115"
     inkscape:cy="288.25174"
     inkscape:window-width="1366"
     inkscape:window-height="705"
     inkscape:window-x="-8"
     inkscape:window-y="-8"
     inkscape:window-maximized="1"
     inkscape:current-layer="layer1" /><defs
     id="defs2" /><g
     inkscape:label="Layer 1"
     inkscape:groupmode="layer"
     id="layer1"><path
       id="path179"
       style="fill:#000000;stroke-width:0.827408"
       d="m 250.53942,45.63541 -2.55859,4.035156 c -19.88971,31.362815 -24.69224,60.590144 -14.27344,86.865234 5.29622,13.35657 12.56389,24.27346 28.5039,42.8164 9.57165,11.13465 14.97788,18.12564 14.4375,18.66602 -0.19658,0.19659 -3.45176,-1.50622 -7.23437,-3.7832 -3.7826,-2.27705 -10.13529,-6.00931 -14.11719,-8.29297 L 248.057,181.7897 v 2.69532 c 0,4.0543 2.85422,14.40325 5.70898,20.69921 6.54808,14.44141 19.15775,26.68681 33.46875,32.50196 19.07255,7.74985 34.56897,17.75071 47.79688,30.8457 20.77445,20.56569 29.75208,41.04825 29.73828,67.84766 -0.0113,21.84817 -5.74335,40.64082 -18.02539,59.08984 -6.71134,10.08115 -19.18663,22.74104 -30.03711,30.48242 -7.9587,5.67827 -27.27034,15.86925 -35.55274,18.76172 -6.05923,2.11613 -2.99628,2.11156 8.02344,-0.0117 24.62243,-4.74446 51.08655,-17.36739 72.23438,-34.45508 14.63214,-11.82288 31.1647,-31.14606 41.16992,-48.11914 8.76812,-14.87437 17.24694,-35.54486 21.62695,-52.72656 12.14841,-47.6547 3.61334,-101.46852 -23.77148,-149.87695 -2.12302,-3.75287 -4.13916,-6.82417 -4.48047,-6.82617 -0.3413,-0.001 -0.66154,2.32381 -0.71094,5.16796 -0.0494,2.84421 -0.32918,7.40635 -0.62109,10.13672 l -0.53125,4.96289 -4.73438,-9.77539 c -16.28592,-33.62703 -37.95832,-55.6218 -63.44531,-64.39062 -6.64526,-2.286323 -6.90225,-2.07549 -3.78125,3.10742 2.86389,4.75591 7.83789,15.98948 7.83789,17.70313 0,0.52462 -0.27978,0.82943 -0.62109,0.67773 -0.3413,-0.15169 -3.41312,-1.64797 -6.82618,-3.32617 -3.41299,-1.67823 -12.05981,-5.48661 -19.21484,-8.46095 C 280.00066,98.81131 270.43638,93.235243 262.5902,84.76041 254.31125,75.818147 250.53942,65.899806 250.53942,53.069004 Z m -54.61719,101.07031 c -25.21765,1.34806 -59.14739,15.45739 -76.57226,32.84765 l -6.66602,6.6504 -6.1582,-3.10352 c -12.56504,-6.33118 -24.122976,-5.82966 -27.759768,1.20312 -2.011866,3.89055 -1.150479,12.00082 2.0625,19.4336 5.127008,11.86068 5.229218,12.83642 5.871098,55.2793 0.64963,42.95604 1.29952,49.41018 6.64062,66.08398 12.35493,38.56955 43.95638,74.52104 77.08203,87.68945 3.0356,1.20674 5.74865,2.19336 6.0293,2.19336 0.28064,0 -0.94131,-2.14113 -2.7168,-4.75781 -9.75121,-14.37112 -16.6914,-35.61417 -16.6914,-51.0918 0,-18.99149 8.61279,-39.03707 22.75585,-52.95508 7.29369,-7.17752 12.4613,-10.60171 22.48829,-14.9082 9.9896,-4.29037 18.30378,-5.64408 31.63086,-5.14844 18.55239,0.68997 32.17396,5.82629 42.99804,16.2129 3.01337,2.89151 4.43755,4.64033 3.16602,3.88671 -1.27154,-0.75361 -4.07178,-2.40837 -6.22461,-3.67773 -5.61685,-3.3118 -14.31248,-6.64004 -21.13867,-8.0918 -8.41071,-1.78872 -24.57155,-1.095 -32.37891,1.38867 -18.77852,5.97395 -33.27104,18.77408 -42.61719,37.64258 -5.18217,10.46211 -6.85917,17.40737 -6.88867,28.54492 -0.0541,20.44347 9.45637,42.23784 27.36524,62.71289 2.50507,2.86411 4.41581,5.3258 4.24609,5.47071 -0.16972,0.14491 -5.15045,-0.63204 -11.06641,-1.72656 -12.4577,-2.30498 -24.99127,-6.2971 -33.64258,-10.7168 -7.48573,-3.82434 -14.67938,-4.39141 -18.62695,-1.4668 -2.60847,1.93253 -6.49065,7.25746 -7.26172,9.95899 -0.63714,2.23223 0.32908,2.62999 23.5918,9.68945 36.01514,10.92946 48.15059,13.64115 64.90039,14.50977 19.60758,1.01674 35.93308,-0.81029 51.36719,-5.75196 43.36217,-13.88355 75.30251,-50.75114 81.7832,-94.39648 4.49788,-30.29146 -3.4877,-53.86075 -25.35937,-74.83985 -11.87984,-11.39492 -26.82358,-20.14199 -44.40235,-25.99023 -16.84472,-5.60411 -21.94779,-6.21667 -49.7207,-5.96484 -19.05053,0.17275 -25.85975,-0.0535 -31.08789,-1.03321 -7.90722,-1.4817 -16.39206,-4.2667 -23.87891,-7.83984 -6.99542,-3.33864 -18.63397,-11.12272 -17.03125,-11.39063 0.68089,-0.11381 11.79248,2.15769 24.69141,5.04688 l 23.45117,5.25195 1.45117,-3.40234 c 5.28277,-12.38919 10.84711,-32.08919 12.82422,-45.4043 1.5786,-10.63152 1.59498,-14.33945 0.0918,-21.43164 -2.26056,-10.66567 -7.2749,-15.12971 -18.39649,-16.37695 -3.17337,-0.35589 -6.59862,-0.42305 -10.20117,-0.23047 z M 90.64293,180.9108 c 4.20424,-0.0586 9.12416,1.12063 14.27344,3.54297 1.59275,0.74919 2.15039,1.14566 1.24024,0.88086 -5.59846,-1.62924 -12.09516,-2.8312 -15.37305,-2.8418 -2.37708,-0.008 -5.24934,0.72647 -7.703125,1.96875 -3.523452,1.78381 -3.762182,1.81753 -2.416016,0.33008 2.285956,-2.52597 5.774281,-3.82227 9.978511,-3.88086 z m 80.99805,3.30468 c 1.41537,-0.0574 2.83786,0.33747 4.45899,1.17579 5.29315,2.73716 6.18352,9.31325 1.87109,13.81445 -2.60037,2.71421 -7.74776,3.16663 -10.90234,0.95703 -4.94192,-3.46145 -4.85449,-11.35442 0.16015,-14.41211 1.58834,-0.96847 2.99674,-1.47776 4.41211,-1.53516 z m -44.125,0.0742 c 2.71753,0.25392 5.91826,1.10771 8.95899,2.5 4.91533,2.25068 18.36082,10.58645 17.86914,11.07813 -0.15814,0.15814 -3.71343,-1.19097 -7.90039,-2.9961 -9.43202,-4.06633 -19.33977,-7.03418 -21.1543,-6.33789 -3.37217,1.29403 -3.56479,8.66801 -0.46094,17.68946 0.83082,2.41474 1.32142,4.39062 1.08985,4.39062 -0.23157,0 -1.50749,-2.39837 -2.83594,-5.32812 -4.46761,-9.85305 -5.03809,-16.81513 -1.62891,-19.90039 1.10993,-1.00447 3.34497,-1.34963 6.0625,-1.09571 z m 524.06446,394.94727 c -0.82607,-0.0217 -1.6474,0.0652 -2.47266,0.0664 -0.12891,0.17635 -0.39326,0.30373 -0.54102,0.47461 0.73719,-0.29817 1.48816,-0.44301 2.22266,-0.42968 0.52403,0.01 1.0045,0.23387 1.49805,0.39843 0.0456,-0.15215 0.10771,-0.28494 0.16211,-0.42968 -0.29089,-0.0239 -0.57262,-0.0723 -0.86914,-0.0801 z m -5.97657,2.78125 c -0.0821,0.0412 -0.20574,0.0571 -0.28906,0.0977 0.0341,0.0709 0.0617,0.14763 0.0957,0.21876 0.0709,-0.091 0.12085,-0.22967 0.19336,-0.31641 z m -142.08789,6.71094 c 3.37447,0.0136 6.74874,0.0359 10.12305,0.0684 -0.20826,-0.003 -0.41473,-0.0327 -0.62305,-0.0352 -3.16524,-0.10416 -6.33302,-0.0375 -9.5,-0.0332 z m 150.7207,20.03125 c -0.0448,0.0537 -0.0908,0.10633 -0.13281,0.16211 0.003,0.81108 0.005,1.62247 0.008,2.43359 0.19561,-0.093 0.38493,-0.18144 0.57422,-0.26953 -0.16317,-0.77282 -0.28809,-1.55306 -0.44922,-2.32617 z m -403.98828,6.04882 c -0.2734,0.0126 -0.54691,0.0227 -0.82031,0.0352 6.05655,-6e-5 12.11313,-7e-5 18.16992,0 3.17894,3e-5 6.3582,-2e-5 9.53711,0 0.013,-0.001 0.0261,-0.002 0.0391,-0.004 -3.58471,-10e-4 -7.16917,-0.002 -10.7539,-0.004 -5.39052,-0.004 -10.7812,-0.0186 -16.17188,-0.0273 z" /></g></svg>
